<?xml version="1.0" encoding="UTF-8"?>
<svg width="48px" height="48px" viewBox="0 0 48 48" version="1.1" xmlns="http://www.w3.org/2000/svg" xmlns:xlink="http://www.w3.org/1999/xlink">
    <title>9 （48*48）</title>
    <g id="9-（48*48）" stroke="none" stroke-width="1" fill="none" fill-rule="evenodd">
        <rect id="矩形" fill="#08C69C" x="0" y="0" width="48" height="48" rx="4"></rect>
        <g id="music" transform="translate(8, 8)" fill="#FFFFFF" fill-rule="nonzero">
            <rect id="矩形" opacity="0" x="0" y="0" width="32" height="32"></rect>
            <path d="M28.0535625,5.453125 L28.0535625,23.03125 C28.0535625,23.5543958 27.8756771,24.02 27.5199062,24.4280625 C27.1641354,24.836125 26.7142188,25.152625 26.1701562,25.3775625 C25.6260938,25.6025 25.0846146,25.7699167 24.5457187,25.8798125 C24.0068229,25.9897083 23.5019688,26.0446354 23.0311563,26.0445938 C22.5603438,26.0445521 22.0554896,25.989625 21.5165937,25.8798125 C20.9776979,25.77 20.4362188,25.6025833 19.8921563,25.3775625 C19.3480938,25.1525417 18.8981771,24.8360417 18.5424063,24.4280625 C18.1866354,24.0200833 18.00875,23.5544792 18.00875,23.03125 C18.00875,22.5080208 18.1866354,22.0424167 18.5424062,21.6344375 C18.8981771,21.2264583 19.3480938,20.9099583 19.8921562,20.6849375 C20.4362187,20.4599167 20.9776979,20.2925 21.5165937,20.1826875 C22.0554896,20.072875 22.5603438,20.0179479 23.0311562,20.0179062 C24.1297813,20.0179062 25.1342396,20.2219375 26.0445312,20.63 L26.0445312,12.2019375 L13.9909687,15.921625 L13.9909687,27.0492188 C13.9909687,27.5723646 13.8130833,28.0379688 13.4573125,28.4460313 C13.1015417,28.8540938 12.6516146,29.1705938 12.1075312,29.3955313 C11.5634479,29.6204688 11.0219687,29.7878854 10.4830937,29.8977813 C9.94421875,30.0076771 9.43936458,30.0625625 8.96853125,30.0625625 C8.49769792,30.0625625 7.99284375,30.0075938 7.45396875,29.8977813 C6.91509375,29.7879688 6.37361458,29.6205521 5.82953125,29.3955313 C5.28544792,29.1705104 4.83552083,28.8540104 4.47975,28.4460313 C4.12397917,28.0380521 3.94609375,27.5724479 3.94609375,27.0492188 C3.94609375,26.5259896 4.12397917,26.0603854 4.47975,25.6524063 C4.83552083,25.2444271 5.28544792,24.9279271 5.82953125,24.7029063 C6.37361458,24.4778854 6.91509375,24.3104688 7.45396875,24.2006563 C7.99284375,24.0908438 8.49769792,24.0359167 8.96853125,24.035875 C10.0671562,24.035875 11.0716146,24.2399062 11.9819062,24.6479688 L11.9819062,9.47115625 C11.9819062,9.14680208 12.0813021,8.85121875 12.2800937,8.58440625 C12.4788854,8.31759375 12.7352292,8.131875 13.049125,8.02725 L26.1071875,4.009375 C26.2327292,3.96752083 26.3792187,3.94659375 26.5466562,3.94659375 C26.9651771,3.94659375 27.3209167,4.09308333 27.613875,4.3860625 C27.9068333,4.67904167 28.0535625,5.03478125 28.0535625,5.45328125 L28.0535625,5.453125 Z" id="路径"></path>
        </g>
    </g>
</svg>