<?xml version="1.0" encoding="UTF-8"?>
<svg width="48px" height="48px" viewBox="0 0 48 48" version="1.1" xmlns="http://www.w3.org/2000/svg" xmlns:xlink="http://www.w3.org/1999/xlink">
    <title>5 （48*48）</title>
    <g id="5-（48*48）" stroke="none" stroke-width="1" fill="none" fill-rule="evenodd">
        <rect id="矩形" fill="#2E5EA6" x="0" y="0" width="48" height="48" rx="4"></rect>
        <g id="detail-fill" transform="translate(8, 8)" fill-rule="nonzero">
            <rect id="矩形" fill="#000000" opacity="0" x="0" y="0" width="32" height="32"></rect>
            <path d="M27.6027061,2 L4.60270615,2 C4.04958115,2 3.60270615,2.446875 3.60270615,3 L3.60270615,29 C3.60270615,29.553125 4.04958115,30 4.60270615,30 L27.6027061,30 C28.1558311,30 28.6027061,29.553125 28.6027061,29 L28.6027061,3 C28.6027061,2.446875 28.1558311,2 27.6027061,2 Z M22.4777061,18.75 C22.4777061,18.8875 22.3652061,19 22.2277061,19 L9.47770615,19 C9.34020615,19 9.22770615,18.8875 9.22770615,18.75 L9.22770615,17.25 C9.22770615,17.1125 9.34020615,17 9.47770615,17 L22.2277061,17 C22.3652061,17 22.4777061,17.1125 22.4777061,17.25 L22.4777061,18.75 Z M22.4777061,23.75 C22.4777061,23.8875 22.3652061,24 22.2277061,24 L9.47770615,24 C9.34020615,24 9.22770615,23.8875 9.22770615,23.75 L9.22770615,22.25 C9.22770615,22.1125 9.34020615,22 9.47770615,22 L22.2277061,22 C22.3652061,22 22.4777061,22.1125 22.4777061,22.25 L22.4777061,23.75 Z M22.4777061,14.25 C22.4777061,14.3875 22.3652061,14.5 22.2277061,14.5 L9.47770615,14.5 C9.34020615,14.5 9.22770615,14.3875 9.22770615,14.25 L9.22770615,12.75 C9.22770615,12.6125 9.34020615,12.5 9.47770615,12.5 L22.2277061,12.5 C22.3652061,12.5 22.4777061,12.6125 22.4777061,12.75 L22.4777061,14.25 Z M22.4777061,9.75 C22.4777061,9.8875 22.3652061,10 22.2277061,10 L9.47770615,10 C9.34020615,10 9.22770615,9.8875 9.22770615,9.75 L9.22770615,8.25 C9.22770615,8.1125 9.34020615,8 9.47770615,8 L22.2277061,8 C22.3652061,8 22.4777061,8.1125 22.4777061,8.25 L22.4777061,9.75 Z" id="形状" fill="#FFFFFF"></path>
        </g>
    </g>
</svg>