<?xml version="1.0" encoding="UTF-8"?>
<svg width="48px" height="48px" viewBox="0 0 48 48" version="1.1" xmlns="http://www.w3.org/2000/svg" xmlns:xlink="http://www.w3.org/1999/xlink">
    <title>2 （48*48）</title>
    <g id="2-（48*48）" stroke="none" stroke-width="1" fill="none" fill-rule="evenodd">
        <rect id="矩形" fill="#00BC66" x="0" y="0" width="48" height="48" rx="4"></rect>
        <g id="表单组件-表格" transform="translate(8, 8)" fill="#FFFFFF" fill-rule="nonzero">
            <rect id="矩形" opacity="0" x="0" y="0" width="32" height="32"></rect>
            <path d="M30,18.482 L30,11.53 C30,11.521 30.005,11.514 30.005,11.506 C30.005,11.498 30,11.49 30,11.482 L30,6 C30,5.44771525 29.5522847,5 29,5 L3,5 C2.44771525,5 2,5.44771525 2,6 L2,11.482 C2,11.491 1.995,11.498 1.995,11.506 C1.995,11.514 2,11.521 2,11.53 L2,18.482 C2,18.491 1.995,18.498 1.995,18.506 C1.995,18.514 2,18.521 2,18.53 L2,27 C2,27.5522847 2.44771525,28 3,28 L29,28 C29.5522847,28 30,27.5522847 30,27 L30,18.53 C30,18.521 30.005,18.514 30.005,18.506 C30.005,18.498 30,18.49 30,18.482 Z M12.5,17.506 L12.5,12.506 L19,12.506 L19,17.506 L12.5,17.506 Z M19,19.506 L19,26 L12.5,26 L12.5,19.506 L19,19.506 Z M4,12.506 L10.5,12.506 L10.5,17.506 L4,17.506 L4,12.506 Z M21,12.506 L28,12.506 L28,17.506 L21,17.506 L21,12.506 Z M28,7 L28,10.506 L4,10.506 L4,7 L28,7 Z M4,19.506 L10.5,19.506 L10.5,26 L4,26 L4,19.506 Z M21,26 L21,19.506 L28,19.506 L28,26 L21,26 Z" id="形状"></path>
        </g>
    </g>
</svg>