<?xml version="1.0" encoding="UTF-8"?>
<svg width="48px" height="48px" viewBox="0 0 48 48" version="1.1" xmlns="http://www.w3.org/2000/svg" xmlns:xlink="http://www.w3.org/1999/xlink">
    <title>7 （48*48）</title>
    <g id="7-（48*48）" stroke="none" stroke-width="1" fill="none" fill-rule="evenodd">
        <rect id="矩形" fill="#4CB3C2" x="0" y="0" width="48" height="48" rx="4"></rect>
        <g id="image-fill" transform="translate(8, 8)" fill-rule="nonzero">
            <rect id="矩形" fill="#000000" opacity="0" x="0" y="0" width="32" height="32"></rect>
            <path d="M29,5 L3,5 C2.446875,5 2,5.446875 2,6 L2,26 C2,26.553125 2.446875,27 3,27 L29,27 C29.553125,27 30,26.553125 30,26 L30,6 C30,5.446875 29.553125,5 29,5 Z M10.5625,9.5 C11.665625,9.5 12.5625,10.396875 12.5625,11.5 C12.5625,12.603125 11.665625,13.5 10.5625,13.5 C9.459375,13.5 8.5625,12.603125 8.5625,11.5 C8.5625,10.396875 9.459375,9.5 10.5625,9.5 Z M26.621875,23.159375 C26.578125,23.196875 26.51875,23.21875 26.459375,23.21875 L5.5375,23.21875 C5.4,23.21875 5.2875,23.10625 5.2875,22.96875 C5.2875,22.909375 5.309375,22.853125 5.346875,22.80625 L10.66875,16.49375 C10.75625,16.3875 10.915625,16.375 11.021875,16.4625 C11.03125,16.471875 11.04375,16.48125 11.053125,16.49375 L14.159375,20.18125 L19.1,14.321875 C19.1875,14.215625 19.346875,14.203125 19.453125,14.290625 C19.4625,14.3 19.475,14.309375 19.484375,14.321875 L26.659375,22.809375 C26.740625,22.9125 26.728125,23.071875 26.621875,23.159375 Z" id="形状" fill="#FFFFFF"></path>
        </g>
    </g>
</svg>