<?xml version="1.0" encoding="UTF-8"?>
<svg width="48px" height="48px" viewBox="0 0 48 48" version="1.1" xmlns="http://www.w3.org/2000/svg" xmlns:xlink="http://www.w3.org/1999/xlink">
    <title>4 （48*48）</title>
    <g id="4-（48*48）" stroke="none" stroke-width="1" fill="none" fill-rule="evenodd">
        <rect id="矩形" fill="#EC5D78" x="0" y="0" width="48" height="48" rx="4"></rect>
        <g id="pdf" transform="translate(8, 8)" fill-rule="nonzero">
            <rect id="矩形" fill="#000000" opacity="0" x="0" y="0" width="32" height="32"></rect>
            <path d="M30.464,20.224 C29.568,19.264 27.776,18.72 25.216,18.72 C23.84,18.72 22.272,18.848 20.544,19.168 C19.584,18.208 18.592,17.088 17.664,15.776 C16.992,14.848 16.416,13.888 15.904,12.928 C16.928,9.76 17.408,7.2 17.408,5.344 C17.408,3.264 16.672,1.088 14.496,1.088 C13.824,1.088 13.184,1.504 12.832,2.08 C11.872,3.84 12.288,7.68 13.984,11.456 C13.344,13.344 12.704,15.168 11.872,17.184 C11.168,18.88 10.336,20.672 9.472,22.272 C4.608,24.256 1.472,26.56 1.184,28.352 C1.056,29.024 1.28,29.664 1.76,30.144 C1.92,30.272 2.56,30.816 3.616,30.816 C6.848,30.816 10.24,25.504 11.968,22.272 C13.28,21.824 14.624,21.408 15.936,21.024 C17.376,20.608 18.848,20.288 20.16,20.064 C23.552,23.168 26.56,23.68 28.064,23.68 C29.92,23.68 30.592,22.912 30.816,22.272 C31.168,21.472 30.912,20.576 30.496,20.096 L30.464,20.224 L30.464,20.224 Z M28.736,21.536 C28.608,22.208 27.936,22.656 27.008,22.656 C26.752,22.656 26.528,22.624 26.272,22.56 C24.576,22.144 23.008,21.28 21.408,19.936 C22.976,19.68 24.288,19.616 25.12,19.616 C26.048,19.616 26.848,19.648 27.36,19.808 C27.968,19.936 28.928,20.352 28.736,21.536 L28.736,21.536 Z M19.36,19.424 C18.208,19.648 16.992,19.936 15.712,20.288 C14.688,20.576 13.632,20.864 12.576,21.248 C13.152,20.128 13.632,19.04 14.08,18.016 C14.624,16.736 15.04,15.456 15.488,14.24 C15.936,15.008 16.416,15.776 16.896,16.448 C17.696,17.504 18.528,18.528 19.36,19.424 Z M13.568,2.624 C13.76,2.272 14.112,2.08 14.4,2.08 C15.328,2.08 15.488,3.168 15.488,4.032 C15.488,5.472 15.04,7.68 14.304,10.208 C13.024,6.688 12.928,3.776 13.568,2.624 L13.568,2.624 Z M8.736,23.648 C6.496,27.424 4.32,29.792 3.008,29.792 C2.752,29.792 2.528,29.696 2.336,29.568 C2.08,29.312 1.952,28.992 2.016,28.608 C2.272,27.264 4.8,25.376 8.736,23.648 Z" id="形状" fill="#FFFFFF"></path>
        </g>
    </g>
</svg>