<?xml version="1.0" encoding="UTF-8"?>
<svg width="48px" height="48px" viewBox="0 0 48 48" version="1.1" xmlns="http://www.w3.org/2000/svg" xmlns:xlink="http://www.w3.org/1999/xlink">
    <title>3 （48*48）</title>
    <g id="3-（48*48）" stroke="none" stroke-width="1" fill="none" fill-rule="evenodd">
        <rect id="矩形" fill="#F97759" x="0" y="0" width="48" height="48" rx="4"></rect>
        <g id="pie-chart-circle-fil" transform="translate(8, 8)" fill-rule="nonzero">
            <rect id="矩形" fill="#000000" opacity="0" x="0" y="0" width="32" height="32"></rect>
            <path d="M26.971875,16.203125 L15.796875,16.203125 L15.796875,5.028125 C15.796875,4.890625 15.684375,4.778125 15.546875,4.778125 L14.734375,4.778125 C13.05,4.778125 11.4125,5.109375 9.875,5.759375 C8.390625,6.3875 7.053125,7.2875 5.90625,8.434375 C4.759375,9.58125 3.859375,10.915625 3.23125,12.403125 C2.58125,13.94375 2.25,15.578125 2.25,17.265625 C2.25,18.953125 2.58125,20.584375 3.23125,22.125 C3.859375,23.609375 4.759375,24.946875 5.90625,26.09375 C7.053125,27.240625 8.3875,28.140625 9.875,28.76875 C11.415625,29.421875 13.053125,29.753125 14.7375,29.753125 C16.421875,29.753125 18.059375,29.421875 19.596875,28.771875 C21.08125,28.14375 22.41875,27.24375 23.565625,26.096875 C24.7125,24.95 25.6125,23.615625 26.240625,22.128125 C26.89375,20.5875 27.225,18.95 27.225,17.265625 L27.225,16.453125 C27.221875,16.315625 27.109375,16.203125 26.971875,16.203125 Z M29.71875,14.46875 L29.6375,13.5875 C29.371875,10.7125 28.096875,8 26.040625,5.953125 C23.9875,3.9 21.271875,2.628125 18.3875,2.3625 L17.503125,2.28125 C17.35625,2.26875 17.23125,2.38125 17.23125,2.528125 L17.23125,14.51875 C17.23125,14.65625 17.34375,14.76875 17.48125,14.76875 L29.46875,14.7375 C29.615625,14.734375 29.73125,14.6125 29.71875,14.46875 Z" id="形状" fill="#FFFFFF"></path>
        </g>
    </g>
</svg>