<?xml version="1.0" encoding="UTF-8"?>
<svg width="48px" height="48px" viewBox="0 0 48 48" version="1.1" xmlns="http://www.w3.org/2000/svg" xmlns:xlink="http://www.w3.org/1999/xlink">
    <title>1（48*48）</title>
    <g id="1（48*48）" stroke="none" stroke-width="1" fill="none" fill-rule="evenodd">
        <rect id="矩形" fill="#548DE4" x="0" y="0" width="48" height="48" rx="4"></rect>
        <g id="file-text-fill" transform="translate(8, 8)" fill-rule="nonzero">
            <rect id="矩形" fill="#000000" opacity="0" x="0" y="0" width="32" height="32"></rect>
            <path d="M26.70625,9.021875 C26.89375,9.209375 27,9.4625 27,9.728125 L27,29 C27,29.553125 26.553125,30 26,30 L6,30 C5.446875,30 5,29.553125 5,29 L5,3 C5,2.446875 5.446875,2 6,2 L19.271875,2 C19.5375,2 19.79375,2.10625 19.98125,2.29375 L26.70625,9.021875 Z M24.69375,10.1875 L18.8125,4.30625 L18.8125,10.1875 L24.69375,10.1875 Z M10,15.0625 C9.86192881,15.0625 9.75,15.1744288 9.75,15.3125 L9.75,16.8125 C9.75,16.9505712 9.86192881,17.0625 10,17.0625 L22,17.0625 C22.1380712,17.0625 22.25,16.9505712 22.25,16.8125 L22.25,15.3125 C22.25,15.1744288 22.1380712,15.0625 22,15.0625 L10,15.0625 Z M10,19.3125 C9.86192881,19.3125 9.75,19.4244288 9.75,19.5625 L9.75,21.0625 C9.75,21.2005712 9.86192881,21.3125 10,21.3125 L15.75,21.3125 C15.8880712,21.3125 16,21.2005712 16,21.0625 L16,19.5625 C16,19.4244288 15.8880712,19.3125 15.75,19.3125 L10,19.3125 Z" id="形状" fill="#FFFFFF"></path>
        </g>
    </g>
</svg>