<?xml version="1.0" encoding="UTF-8"?>
<svg width="48px" height="48px" viewBox="0 0 48 48" version="1.1" xmlns="http://www.w3.org/2000/svg" xmlns:xlink="http://www.w3.org/1999/xlink">
    <title>6 （48*48）</title>
    <g id="6-（48*48）" stroke="none" stroke-width="1" fill="none" fill-rule="evenodd">
        <rect id="矩形" fill="#708297" x="0" y="0" width="48" height="48" rx="4"></rect>
        <g id="file-fill" transform="translate(8, 8)" fill-rule="nonzero">
            <rect id="矩形" fill="#000000" opacity="0" x="0" y="0" width="32" height="32"></rect>
            <path d="M26.70625,9.021875 C26.89375,9.209375 27,9.4625 27,9.728125 L27,29 C27,29.553125 26.553125,30 26,30 L6,30 C5.446875,30 5,29.553125 5,29 L5,3 C5,2.446875 5.446875,2 6,2 L19.271875,2 C19.5375,2 19.79375,2.10625 19.98125,2.29375 L26.70625,9.021875 Z M24.69375,10.1875 L18.8125,4.30625 L18.8125,10.1875 L24.69375,10.1875 Z" id="形状" fill="#FFFFFF"></path>
        </g>
    </g>
</svg>