<?xml version="1.0" encoding="UTF-8"?>
<svg width="48px" height="48px" viewBox="0 0 48 48" version="1.1" xmlns="http://www.w3.org/2000/svg" xmlns:xlink="http://www.w3.org/1999/xlink">
    <title>10 （48*48）</title>
    <g id="10-（48*48）" stroke="none" stroke-width="1" fill="none" fill-rule="evenodd">
        <rect id="矩形" fill="#A071EA" x="0" y="0" width="48" height="48" rx="4"></rect>
        <g id="video" transform="translate(8, 8)" fill="#FFFFFF" fill-rule="nonzero">
            <rect id="矩形" opacity="0" x="0" y="0" width="32" height="32"></rect>
            <path d="M28,9.53334375 C27.1718947,9.16048201 26.2011819,9.31789556 25.5333438,9.93334375 L22.6666562,12.6 L22.6666562,10.6666562 C22.6666562,8.45751725 20.8757952,6.66665625 18.6666562,6.66665625 L6.66665625,6.66665625 C4.45751725,6.66665625 2.66665625,8.45751725 2.66665625,10.6666562 L2.66665625,21.3333437 C2.66665625,23.5424827 4.45751725,25.3333437 6.66665625,25.3333437 L18.6666562,25.3333437 C20.8757952,25.3333437 22.6666562,23.5424827 22.6666562,21.3333437 L22.6666562,19.4 L25.5466562,22.0666562 C25.970644,22.4504553 26.5214513,22.6641277 27.0933438,22.6666562 C27.410716,22.6659172 27.7243084,22.597745 28.0133438,22.4666563 C28.8177355,22.1412529 29.3448907,21.3610593 29.3466563,20.4933438 L29.3466563,11.5066563 C29.3426985,10.6356527 28.8096319,9.85452757 28,9.53334375 Z" id="路径"></path>
        </g>
    </g>
</svg>