<?xml version="1.0" encoding="UTF-8"?>
<svg width="48px" height="48px" viewBox="0 0 48 48" version="1.1" xmlns="http://www.w3.org/2000/svg" xmlns:xlink="http://www.w3.org/1999/xlink">
    <title>8 （48*48）</title>
    <g id="8-（48*48）" stroke="none" stroke-width="1" fill="none" fill-rule="evenodd">
        <rect id="矩形" fill="#558DCE" x="0" y="0" width="48" height="48" rx="4"></rect>
        <g id="file-zip" transform="translate(8, 8)" fill="#FFFFFF" fill-rule="nonzero">
            <rect id="矩形" opacity="0" x="0" y="0" width="32" height="32"></rect>
            <path d="M14,12 L16,12 L16,14 L14,14 L14,12 Z M14,17.9375 L14,22.9375 L18,22.9375 L18,17.9375 L16,17.9375 L16,16 L14,16 L14,17.9375 Z M16.5,19.4375 L16.5,21.4375 L15.5,21.4375 L15.5,19.4375 L16.5,19.4375 Z M16,10 L18,10 L18,12 L16,12 L16,10 Z M14,8 L16,8 L16,10 L14,10 L14,8 Z M16,14 L18,14 L18,16 L16,16 L16,14 Z M16,6 L18,6 L18,8 L16,8 L16,6 Z M14,4 L16,4 L16,6 L14,6 L14,4 Z" id="形状"></path>
        </g>
    </g>
</svg>